# xmcd CD database file
#
# Track frame offsets:
#	150
#	13811
#	26420
#	39440
#	52808
#	66657
#	79774
#	93372
#	106162
#	119941
#	133456
#	148001
#	162818
#	176284
#	190704
#	203571
#	217615
#	231192
#	244442
#	258632
#	272558
#	286212
#	299037
#	312802
#
# Disc length: 4358 seconds
#
# Revision: 0
# Processed by: cddbd v1.5.1PL0 Copyright (c) Steve Scherf et al.
# Submitted via: CDex 1.51
#
DISCID=64110418
DTITLE=Bix Beiderbecke - The Young Man With The Horn
DYEAR=1974
DGENRE=Jazz
TTITLE0=Jazz Me Blues
TTITLE1=Louisiana
TTITLE2=Sorry
TTITLE3=Thou Swell
TTITLE4=Ol' Man River
TTITLE5=Somebody Stole My Gal
TTITLE6=Royal Garden Blues
TTITLE7=At The Jazz Band Blues
TTITLE8=Since My Best Gal Turned Me Down
TTITLE9=Wa-Da-Da
TTITLE10=Goose Pimples
TTITLE11=Rhythm King
TTITLE12=Singin' The Blues
TTITLE13=Clarinet Marmalade
TTITLE14=Way Down Yonder In New Orleans
TTITLE15=Mississippi Mud
TTITLE16=For No Reason At All In C
TTITLE17=There'll Come A Time (Wait And See)
TTITLE18=I'm Comin' Virginia
TTITLE19=Ostrich Walk
TTITLE20=A Good Man Is Hard To Find
TTITLE21=Wringin' And Twistin'
TTITLE22=Cryin' All Day
TTITLE23=Riverboat Shuffle
EXTD=YEAR: 1974
EXTT0=
EXTT1=
EXTT2=
EXTT3=
EXTT4=
EXTT5=
EXTT6=
EXTT7=
EXTT8=
EXTT9=
EXTT10=
EXTT11=
EXTT12=
EXTT13=
EXTT14=
EXTT15=
EXTT16=
EXTT17=
EXTT18=
EXTT19=
EXTT20=
EXTT21=
EXTT22=
EXTT23=
PLAYORDER=
